<svg width="512" height="512" viewBox="0 0 100 100" xmlns="http://www.w3.org/2000/svg">
<defs>
<linearGradient id="grad" x1="0%" y1="0%" x2="100%" y2="100%">
  <stop offset="0%" style="stop-color:#8B5CF6;stop-opacity:1" />
  <stop offset="100%" style="stop-color:#3B82F6;stop-opacity:1" />
</linearGradient>
</defs>
<rect width="100" height="100" rx="25" fill="url(#grad)"/>
<path d="M25 35C25 31.6863 27.6863 29 31 29H69C72.3137 29 75 31.6863 75 35V55C75 58.3137 72.3137 61 69 61H56L42 71V61H31C27.6863 61 25 58.3137 25 55V35Z" fill="white"/>
<path d="M58 33L55.5 40L49 42L55.5 44L58 51L60.5 44L67 42L60.5 40L58 33Z" fill="#8B5CF6"/>
</svg>
